<svg width="222" height="208" viewBox="0 0 222 208" fill="none" xmlns="http://www.w3.org/2000/svg">
<path d="M24.7021 24.6212L55.1605 53.2989L15.8359 67.5714L24.7021 24.6212Z" stroke="#007EC5" stroke-width="3"/>
<path d="M205.718 175.629L171.914 152.504L207.299 131.878L205.718 175.629Z" stroke="black" stroke-width="3"/>
<path d="M82.4422 17.5864L58.5811 51.9488L38.6534 15.1654L82.4422 17.5864Z" stroke="#02791C" stroke-width="3"/>
<path d="M151.681 191.898L169.556 155.047L195.186 186.995L151.681 191.898Z" stroke="white" stroke-width="3"/>
<path d="M59.7969 70V55.7227H62.8242V67.5H68.6152V70H59.7969ZM79.3281 70H71.1055V55.7227H79.3281V58.2031H74.1328V61.3379H78.9668V63.8184H74.1328V67.5H79.3281V70ZM87.8242 70H84.7969V58.2422H80.9199V55.7227H91.7012V58.2422H87.8242V70ZM96.0664 55.7227L96.2031 55.9375C96.0859 56.4128 95.9329 56.9206 95.7441 57.4609C95.5618 57.9948 95.36 58.5319 95.1387 59.0723C94.9238 59.6126 94.7057 60.127 94.4844 60.6152H92.3457C92.4368 60.2246 92.528 59.8145 92.6191 59.3848C92.7168 58.9551 92.8079 58.5254 92.8926 58.0957C92.9837 57.666 93.0651 57.2493 93.1367 56.8457C93.2083 56.4421 93.2702 56.0677 93.3223 55.7227H96.0664ZM106.662 66.0352C106.662 66.8815 106.457 67.6172 106.047 68.2422C105.637 68.8672 105.038 69.349 104.25 69.6875C103.469 70.026 102.518 70.1953 101.398 70.1953C100.904 70.1953 100.419 70.1628 99.9434 70.0977C99.4746 70.0326 99.0221 69.9382 98.5859 69.8145C98.1562 69.6842 97.7461 69.5247 97.3555 69.3359V66.5234C98.0326 66.8229 98.7357 67.0931 99.4648 67.334C100.194 67.5749 100.917 67.6953 101.633 67.6953C102.128 67.6953 102.525 67.6302 102.824 67.5C103.13 67.3698 103.352 67.1908 103.488 66.9629C103.625 66.735 103.693 66.4746 103.693 66.1816C103.693 65.8236 103.573 65.5176 103.332 65.2637C103.091 65.0098 102.759 64.7721 102.336 64.5508C101.919 64.3294 101.447 64.0918 100.92 63.8379C100.588 63.6816 100.227 63.4928 99.8359 63.2715C99.4453 63.0436 99.0742 62.7669 98.7227 62.4414C98.3711 62.1159 98.0814 61.722 97.8535 61.2598C97.6322 60.791 97.5215 60.2311 97.5215 59.5801C97.5215 58.7272 97.7168 57.998 98.1074 57.3926C98.498 56.7871 99.0547 56.3249 99.7773 56.0059C100.507 55.6803 101.366 55.5176 102.355 55.5176C103.098 55.5176 103.804 55.6055 104.475 55.7812C105.152 55.9505 105.858 56.1979 106.594 56.5234L105.617 58.877C104.96 58.61 104.37 58.4049 103.85 58.2617C103.329 58.112 102.798 58.0371 102.258 58.0371C101.88 58.0371 101.558 58.099 101.291 58.2227C101.024 58.3398 100.822 58.5091 100.686 58.7305C100.549 58.9453 100.48 59.196 100.48 59.4824C100.48 59.821 100.578 60.1074 100.773 60.3418C100.975 60.5697 101.275 60.791 101.672 61.0059C102.076 61.2207 102.577 61.4714 103.176 61.7578C103.905 62.1029 104.527 62.4642 105.041 62.8418C105.562 63.2129 105.962 63.6523 106.242 64.1602C106.522 64.6615 106.662 65.2865 106.662 66.0352Z" fill="#02791C"/>
<path d="M59.7969 82.7227H64.2402C66.1413 82.7227 67.5801 82.9896 68.5566 83.5234C69.5332 84.0573 70.0215 84.9948 70.0215 86.3359C70.0215 86.8763 69.9336 87.3646 69.7578 87.8008C69.5885 88.237 69.3411 88.5951 69.0156 88.875C68.6901 89.1549 68.293 89.3372 67.8242 89.4219V89.5195C68.2995 89.6172 68.7292 89.7865 69.1133 90.0273C69.4974 90.2617 69.8034 90.6068 70.0312 91.0625C70.2656 91.5117 70.3828 92.1107 70.3828 92.8594C70.3828 93.7253 70.1712 94.4674 69.748 95.0859C69.3249 95.7044 68.7194 96.1797 67.9316 96.5117C67.1504 96.8372 66.2194 97 65.1387 97H59.7969V82.7227ZM62.8242 88.377H64.582C65.4609 88.377 66.0697 88.2402 66.4082 87.9668C66.7467 87.6868 66.916 87.2767 66.916 86.7363C66.916 86.1895 66.7142 85.7988 66.3105 85.5645C65.9134 85.3236 65.2819 85.2031 64.416 85.2031H62.8242V88.377ZM62.8242 90.7793V94.5H64.7969C65.7083 94.5 66.3431 94.3242 66.7012 93.9727C67.0592 93.6211 67.2383 93.1491 67.2383 92.5566C67.2383 92.2051 67.1602 91.8958 67.0039 91.6289C66.8477 91.362 66.584 91.1536 66.2129 91.0039C65.8483 90.8542 65.3438 90.7793 64.6992 90.7793H62.8242ZM84.8555 82.7227V91.9609C84.8555 92.944 84.6374 93.8327 84.2012 94.627C83.7715 95.4147 83.1172 96.0397 82.2383 96.502C81.3659 96.9642 80.2656 97.1953 78.9375 97.1953C77.0495 97.1953 75.6107 96.7135 74.6211 95.75C73.6315 94.7865 73.1367 93.5104 73.1367 91.9219V82.7227H76.1543V91.4629C76.1543 92.6413 76.3952 93.4681 76.877 93.9434C77.3587 94.4186 78.0716 94.6562 79.0156 94.6562C79.6797 94.6562 80.2168 94.5423 80.627 94.3145C81.0436 94.0866 81.3496 93.735 81.5449 93.2598C81.7402 92.7845 81.8379 92.179 81.8379 91.4434V82.7227H84.8555ZM88.3516 97V82.7227H91.3789V97H88.3516ZM94.9727 97V82.7227H98V94.5H103.791V97H94.9727ZM118.127 89.7246C118.127 91.3327 117.818 92.6771 117.199 93.7578C116.587 94.832 115.699 95.6426 114.533 96.1895C113.368 96.7298 111.965 97 110.324 97H106.281V82.7227H110.764C112.261 82.7227 113.56 82.9896 114.66 83.5234C115.76 84.0508 116.613 84.8353 117.219 85.877C117.824 86.9121 118.127 88.1947 118.127 89.7246ZM114.982 89.8027C114.982 88.748 114.826 87.8822 114.514 87.2051C114.208 86.5215 113.752 86.0169 113.146 85.6914C112.548 85.3659 111.805 85.2031 110.92 85.2031H109.309V94.5H110.607C112.085 94.5 113.182 94.1061 113.898 93.3184C114.621 92.5306 114.982 91.3587 114.982 89.8027ZM131.789 97H128.762V85.2422H124.885V82.7227H135.666V85.2422H131.789V97ZM149.562 97H146.545V90.8379H140.891V97H137.863V82.7227H140.891V88.3184H146.545V82.7227H149.562V97ZM161.398 97H153.176V82.7227H161.398V85.2031H156.203V88.3379H161.037V90.8184H156.203V94.5H161.398V97Z" fill="#007EC5"/>
<path d="M62.7754 124H59.7969V109.723H67.9805V112.203H62.7754V115.885H67.6191V118.355H62.7754V124ZM82.3945 109.723V118.961C82.3945 119.944 82.1764 120.833 81.7402 121.627C81.3105 122.415 80.6562 123.04 79.7773 123.502C78.9049 123.964 77.8047 124.195 76.4766 124.195C74.5885 124.195 73.1497 123.714 72.1602 122.75C71.1706 121.786 70.6758 120.51 70.6758 118.922V109.723H73.6934V118.463C73.6934 119.641 73.9342 120.468 74.416 120.943C74.8978 121.419 75.6107 121.656 76.5547 121.656C77.2188 121.656 77.7559 121.542 78.166 121.314C78.5827 121.087 78.8887 120.735 79.084 120.26C79.2793 119.785 79.377 119.179 79.377 118.443V109.723H82.3945ZM91.3984 124H88.3711V112.242H84.4941V109.723H95.2754V112.242H91.3984V124ZM109.094 109.723V118.961C109.094 119.944 108.876 120.833 108.439 121.627C108.01 122.415 107.355 123.04 106.477 123.502C105.604 123.964 104.504 124.195 103.176 124.195C101.288 124.195 99.849 123.714 98.8594 122.75C97.8698 121.786 97.375 120.51 97.375 118.922V109.723H100.393V118.463C100.393 119.641 100.633 120.468 101.115 120.943C101.597 121.419 102.31 121.656 103.254 121.656C103.918 121.656 104.455 121.542 104.865 121.314C105.282 121.087 105.588 120.735 105.783 120.26C105.979 119.785 106.076 119.179 106.076 118.443V109.723H109.094ZM116.75 109.723C118.046 109.723 119.113 109.879 119.953 110.191C120.799 110.504 121.428 110.976 121.838 111.607C122.248 112.239 122.453 113.036 122.453 114C122.453 114.651 122.329 115.221 122.082 115.709C121.835 116.197 121.509 116.611 121.105 116.949C120.702 117.288 120.266 117.564 119.797 117.779L123.996 124H120.637L117.229 118.521H115.617V124H112.59V109.723H116.75ZM116.535 112.203H115.617V116.061H116.594C117.596 116.061 118.312 115.895 118.742 115.562C119.178 115.224 119.396 114.729 119.396 114.078C119.396 113.401 119.162 112.919 118.693 112.633C118.231 112.346 117.512 112.203 116.535 112.203ZM134.016 124H125.793V109.723H134.016V112.203H128.82V115.338H133.654V117.818H128.82V121.5H134.016V124Z" fill="black"/>
<path d="M65.3047 151H62.2773V139.242H58.4004V136.723H69.1816V139.242H65.3047V151ZM84.3379 143.842C84.3379 144.942 84.2012 145.945 83.9277 146.85C83.6543 147.748 83.2376 148.523 82.6777 149.174C82.1243 149.825 81.4212 150.326 80.5684 150.678C79.7155 151.023 78.7064 151.195 77.541 151.195C76.3757 151.195 75.3665 151.023 74.5137 150.678C73.6608 150.326 72.9544 149.825 72.3945 149.174C71.8411 148.523 71.4277 147.745 71.1543 146.84C70.8809 145.935 70.7441 144.929 70.7441 143.822C70.7441 142.344 70.985 141.059 71.4668 139.965C71.9551 138.865 72.7038 138.012 73.7129 137.406C74.722 136.801 76.0046 136.498 77.5605 136.498C79.11 136.498 80.3828 136.801 81.3789 137.406C82.3815 138.012 83.1237 138.865 83.6055 139.965C84.0938 141.065 84.3379 142.357 84.3379 143.842ZM73.918 143.842C73.918 144.838 74.0417 145.697 74.2891 146.42C74.543 147.136 74.9368 147.689 75.4707 148.08C76.0046 148.464 76.6947 148.656 77.541 148.656C78.4004 148.656 79.097 148.464 79.6309 148.08C80.1647 147.689 80.5521 147.136 80.793 146.42C81.0404 145.697 81.1641 144.838 81.1641 143.842C81.1641 142.344 80.8841 141.166 80.3242 140.307C79.7643 139.447 78.8431 139.018 77.5605 139.018C76.7077 139.018 76.0111 139.213 75.4707 139.604C74.9368 139.988 74.543 140.541 74.2891 141.264C74.0417 141.98 73.918 142.839 73.918 143.842ZM92.7168 142.982H98.3809V150.385C97.6322 150.632 96.8542 150.831 96.0469 150.98C95.2396 151.124 94.3249 151.195 93.3027 151.195C91.8835 151.195 90.679 150.915 89.6895 150.355C88.6999 149.796 87.9479 148.969 87.4336 147.875C86.9193 146.781 86.6621 145.437 86.6621 143.842C86.6621 142.344 86.9486 141.049 87.5215 139.955C88.1009 138.861 88.944 138.015 90.0508 137.416C91.1641 136.817 92.5215 136.518 94.123 136.518C94.8783 136.518 95.6237 136.599 96.3594 136.762C97.0951 136.924 97.7624 137.136 98.3613 137.396L97.3555 139.818C96.9193 139.597 96.4212 139.411 95.8613 139.262C95.3014 139.112 94.7155 139.037 94.1035 139.037C93.2246 139.037 92.4596 139.239 91.8086 139.643C91.1641 140.046 90.6628 140.613 90.3047 141.342C89.9531 142.064 89.7773 142.917 89.7773 143.9C89.7773 144.831 89.9043 145.658 90.1582 146.381C90.4121 147.097 90.8125 147.66 91.3594 148.07C91.9062 148.474 92.6191 148.676 93.498 148.676C93.9277 148.676 94.2891 148.656 94.582 148.617C94.8815 148.572 95.1615 148.526 95.4219 148.48V145.502H92.7168V142.982ZM110.012 151H101.789V136.723H110.012V139.203H104.816V142.338H109.65V144.818H104.816V148.5H110.012V151ZM118.508 151H115.48V139.242H111.604V136.723H122.385V139.242H118.508V151ZM136.281 151H133.264V144.838H127.609V151H124.582V136.723H127.609V142.318H133.264V136.723H136.281V151ZM148.117 151H139.895V136.723H148.117V139.203H142.922V142.338H147.756V144.818H142.922V148.5H148.117V151ZM155.266 136.723C156.561 136.723 157.629 136.879 158.469 137.191C159.315 137.504 159.943 137.976 160.354 138.607C160.764 139.239 160.969 140.036 160.969 141C160.969 141.651 160.845 142.221 160.598 142.709C160.35 143.197 160.025 143.611 159.621 143.949C159.217 144.288 158.781 144.564 158.312 144.779L162.512 151H159.152L155.744 145.521H154.133V151H151.105V136.723H155.266ZM155.051 139.203H154.133V143.061H155.109C156.112 143.061 156.828 142.895 157.258 142.562C157.694 142.224 157.912 141.729 157.912 141.078C157.912 140.401 157.678 139.919 157.209 139.633C156.747 139.346 156.027 139.203 155.051 139.203ZM166.574 146.264H164.191L163.693 136.723H167.072L166.574 146.264ZM163.654 149.604C163.654 148.992 163.82 148.562 164.152 148.314C164.491 148.067 164.898 147.943 165.373 147.943C165.835 147.943 166.232 148.067 166.564 148.314C166.903 148.562 167.072 148.992 167.072 149.604C167.072 150.189 166.903 150.613 166.564 150.873C166.232 151.133 165.835 151.264 165.373 151.264C164.898 151.264 164.491 151.133 164.152 150.873C163.82 150.613 163.654 150.189 163.654 149.604Z" fill="white"/>
</svg>
